<?xml version="1.0" encoding="UTF-8"?>
<svg xmlns="http://www.w3.org/2000/svg"
     width="1000" height="550"
     viewBox="0 0 1000 550">
<defs>
  <style>
    text { font-family: monospace; font-size: 12px; fill: #ddd; }
    .title { font-size: 16px; fill: #fff; font-weight: bold; }
    .label { font-size: 11px; fill: #aaa; }
    .axis  { stroke: #555; stroke-width: 1; fill: none; }
    .grid  { stroke: #333; stroke-width: 0.5; fill: none; stroke-dasharray: 4,4; }
  </style>
</defs>
<rect width="1000" height="550" fill="#1a1a2e"/>
<text class="title" x="500" y="30" text-anchor="middle">MH12011.57%   α = 10.0°   Cl = 1.5148</text>
<polyline points="430.00,275.00 429.04,274.61 426.32,273.87 421.99,272.94 416.08,271.80 408.71,270.43 400.03,268.83 390.19,267.05 379.35,265.13 367.64,263.17 355.20,261.20 342.17,259.28 328.71,257.42 315.00,255.73 301.17,254.25 287.37,253.06 273.70,252.20 260.29,251.72 247.24,251.64 234.62,251.98 222.53,252.72 211.05,253.79 200.33,255.17 190.46,256.85 181.53,258.78 173.61,260.94 166.77,263.26 161.06,265.72 156.50,268.24 153.11,270.72 150.93,273.02 150.00,274.92 150.77,276.37 153.38,277.66 157.54,278.94 163.15,280.15 170.12,281.26 178.37,282.21 187.82,283.02 198.36,283.63 209.90,284.04 222.33,284.22 235.55,284.20 249.43,283.99 263.83,283.63 278.60,283.12 293.58,282.52 308.60,281.86 323.47,281.18 338.00,280.48 352.02,279.80 365.34,279.15 377.81,278.54 389.25,277.97 399.51,277.46 408.47,276.99 415.99,276.57 421.96,276.17 426.30,275.75 429.03,275.29 430.00,275.00 430.00,275.00" fill="#16213e" stroke="#4a90d9" stroke-width="2"/>
<line x1="429.52" y1="274.81" x2="425.50" y2="284.82" stroke="#e07b39" stroke-width="1.5" opacity="0.7"/>
<line x1="427.68" y1="274.24" x2="426.72" y2="277.75" stroke="#e07b39" stroke-width="1.5" opacity="0.7"/>
<line x1="424.16" y1="273.41" x2="424.03" y2="274.00" stroke="#e07b39" stroke-width="1.5" opacity="0.7"/>
<line x1="419.04" y1="272.37" x2="419.15" y2="271.77" stroke="#4a90d9" stroke-width="1.5" opacity="0.7"/>
<line x1="412.40" y1="271.11" x2="412.65" y2="269.73" stroke="#4a90d9" stroke-width="1.5" opacity="0.7"/>
<line x1="404.37" y1="269.63" x2="404.81" y2="267.23" stroke="#4a90d9" stroke-width="1.5" opacity="0.7"/>
<line x1="395.11" y1="267.94" x2="395.79" y2="264.20" stroke="#4a90d9" stroke-width="1.5" opacity="0.7"/>
<line x1="384.77" y1="266.09" x2="385.70" y2="260.80" stroke="#4a90d9" stroke-width="1.5" opacity="0.7"/>
<line x1="373.50" y1="264.15" x2="374.70" y2="256.96" stroke="#4a90d9" stroke-width="1.5" opacity="0.7"/>
<line x1="361.42" y1="262.19" x2="362.86" y2="253.12" stroke="#4a90d9" stroke-width="1.5" opacity="0.7"/>
<line x1="348.69" y1="260.24" x2="350.32" y2="249.19" stroke="#4a90d9" stroke-width="1.5" opacity="0.7"/>
<line x1="335.44" y1="258.35" x2="337.26" y2="245.17" stroke="#4a90d9" stroke-width="1.5" opacity="0.7"/>
<line x1="321.86" y1="256.58" x2="323.79" y2="240.89" stroke="#4a90d9" stroke-width="1.5" opacity="0.7"/>
<line x1="308.09" y1="254.99" x2="310.05" y2="236.64" stroke="#4a90d9" stroke-width="1.5" opacity="0.7"/>
<line x1="294.27" y1="253.65" x2="296.11" y2="232.37" stroke="#4a90d9" stroke-width="1.5" opacity="0.7"/>
<line x1="280.53" y1="252.63" x2="282.07" y2="228.35" stroke="#4a90d9" stroke-width="1.5" opacity="0.7"/>
<line x1="267.00" y1="251.96" x2="267.97" y2="224.52" stroke="#4a90d9" stroke-width="1.5" opacity="0.7"/>
<line x1="253.76" y1="251.68" x2="253.95" y2="221.14" stroke="#4a90d9" stroke-width="1.5" opacity="0.7"/>
<line x1="240.93" y1="251.81" x2="240.02" y2="218.17" stroke="#4a90d9" stroke-width="1.5" opacity="0.7"/>
<line x1="228.58" y1="252.35" x2="226.36" y2="215.79" stroke="#4a90d9" stroke-width="1.5" opacity="0.7"/>
<line x1="216.79" y1="253.26" x2="213.07" y2="213.74" stroke="#4a90d9" stroke-width="1.5" opacity="0.7"/>
<line x1="205.69" y1="254.48" x2="200.19" y2="211.66" stroke="#4a90d9" stroke-width="1.5" opacity="0.7"/>
<line x1="195.40" y1="256.01" x2="187.47" y2="209.26" stroke="#4a90d9" stroke-width="1.5" opacity="0.7"/>
<line x1="186.00" y1="257.81" x2="174.94" y2="206.73" stroke="#4a90d9" stroke-width="1.5" opacity="0.7"/>
<line x1="177.57" y1="259.86" x2="162.32" y2="203.86" stroke="#4a90d9" stroke-width="1.5" opacity="0.7"/>
<line x1="170.19" y1="262.10" x2="149.22" y2="200.49" stroke="#4a90d9" stroke-width="1.5" opacity="0.7"/>
<line x1="163.92" y1="264.49" x2="134.64" y2="196.48" stroke="#4a90d9" stroke-width="1.5" opacity="0.7"/>
<line x1="158.78" y1="266.98" x2="117.45" y2="192.10" stroke="#4a90d9" stroke-width="1.5" opacity="0.7"/>
<line x1="154.81" y1="269.48" x2="94.73" y2="187.25" stroke="#4a90d9" stroke-width="1.5" opacity="0.7"/>
<line x1="152.02" y1="271.87" x2="58.22" y2="182.78" stroke="#4a90d9" stroke-width="1.5" opacity="0.7"/>
<line x1="150.46" y1="273.97" x2="-19.16" y2="191.67" stroke="#4a90d9" stroke-width="1.5" opacity="0.7"/>
<line x1="150.39" y1="275.65" x2="31.18" y2="338.94" stroke="#4a90d9" stroke-width="1.5" opacity="0.7"/>
<line x1="152.08" y1="277.01" x2="153.21" y2="274.71" stroke="#e07b39" stroke-width="1.5" opacity="0.7"/>
<line x1="155.46" y1="278.30" x2="162.29" y2="256.20" stroke="#e07b39" stroke-width="1.5" opacity="0.7"/>
<line x1="160.35" y1="279.55" x2="165.59" y2="255.26" stroke="#e07b39" stroke-width="1.5" opacity="0.7"/>
<line x1="166.63" y1="280.71" x2="170.21" y2="258.09" stroke="#e07b39" stroke-width="1.5" opacity="0.7"/>
<line x1="174.24" y1="281.73" x2="176.58" y2="261.54" stroke="#e07b39" stroke-width="1.5" opacity="0.7"/>
<line x1="183.10" y1="282.62" x2="184.61" y2="264.76" stroke="#e07b39" stroke-width="1.5" opacity="0.7"/>
<line x1="193.09" y1="283.32" x2="194.00" y2="267.61" stroke="#e07b39" stroke-width="1.5" opacity="0.7"/>
<line x1="204.13" y1="283.83" x2="204.62" y2="269.93" stroke="#e07b39" stroke-width="1.5" opacity="0.7"/>
<line x1="216.11" y1="284.13" x2="216.30" y2="271.79" stroke="#e07b39" stroke-width="1.5" opacity="0.7"/>
<line x1="228.94" y1="284.21" x2="228.92" y2="273.12" stroke="#e07b39" stroke-width="1.5" opacity="0.7"/>
<line x1="242.49" y1="284.10" x2="242.34" y2="274.05" stroke="#e07b39" stroke-width="1.5" opacity="0.7"/>
<line x1="256.63" y1="283.81" x2="256.39" y2="274.59" stroke="#e07b39" stroke-width="1.5" opacity="0.7"/>
<line x1="271.21" y1="283.37" x2="270.92" y2="274.86" stroke="#e07b39" stroke-width="1.5" opacity="0.7"/>
<line x1="286.09" y1="282.82" x2="285.77" y2="274.85" stroke="#e07b39" stroke-width="1.5" opacity="0.7"/>
<line x1="301.09" y1="282.19" x2="300.76" y2="274.69" stroke="#e07b39" stroke-width="1.5" opacity="0.7"/>
<line x1="316.03" y1="281.52" x2="315.71" y2="274.37" stroke="#e07b39" stroke-width="1.5" opacity="0.7"/>
<line x1="330.73" y1="280.83" x2="330.41" y2="274.03" stroke="#e07b39" stroke-width="1.5" opacity="0.7"/>
<line x1="345.01" y1="280.14" x2="344.69" y2="273.59" stroke="#e07b39" stroke-width="1.5" opacity="0.7"/>
<line x1="358.68" y1="279.48" x2="358.37" y2="273.17" stroke="#e07b39" stroke-width="1.5" opacity="0.7"/>
<line x1="371.57" y1="278.84" x2="371.27" y2="272.69" stroke="#e07b39" stroke-width="1.5" opacity="0.7"/>
<line x1="383.53" y1="278.26" x2="383.23" y2="272.25" stroke="#e07b39" stroke-width="1.5" opacity="0.7"/>
<line x1="394.38" y1="277.72" x2="394.08" y2="271.70" stroke="#e07b39" stroke-width="1.5" opacity="0.7"/>
<line x1="403.99" y1="277.23" x2="403.67" y2="271.14" stroke="#e07b39" stroke-width="1.5" opacity="0.7"/>
<line x1="412.23" y1="276.78" x2="411.87" y2="270.44" stroke="#e07b39" stroke-width="1.5" opacity="0.7"/>
<line x1="418.98" y1="276.37" x2="418.53" y2="269.71" stroke="#e07b39" stroke-width="1.5" opacity="0.7"/>
<line x1="424.13" y1="275.96" x2="423.47" y2="269.03" stroke="#e07b39" stroke-width="1.5" opacity="0.7"/>
<line x1="427.67" y1="275.52" x2="426.36" y2="267.71" stroke="#e07b39" stroke-width="1.5" opacity="0.7"/>
<line x1="429.52" y1="275.15" x2="426.38" y2="264.82" stroke="#e07b39" stroke-width="1.5" opacity="0.7"/>
<text class="label" x="290.00" y="395.00" text-anchor="middle">← chord →   (arrows: blue = suction, orange = pressure)</text>
<line x1="150.00" y1="275.00" x2="430.00" y2="275.00" class="axis"/>
<line x1="520.00" y1="410.00" x2="900.00" y2="410.00" class="axis"/>
<line x1="520.00" y1="500.00" x2="520.00" y2="50.00" class="axis"/>
<line x1="900.00" y1="500.00" x2="900.00" y2="50.00" class="grid"/>
<line x1="520.00" y1="50.00" x2="900.00" y2="50.00" class="grid"/>
<text class="label" x="514.00" y="54.00" text-anchor="end">-4</text>
<line x1="520.00" y1="140.00" x2="900.00" y2="140.00" class="grid"/>
<text class="label" x="514.00" y="144.00" text-anchor="end">-3</text>
<line x1="520.00" y1="230.00" x2="900.00" y2="230.00" class="grid"/>
<text class="label" x="514.00" y="234.00" text-anchor="end">-2</text>
<line x1="520.00" y1="320.00" x2="900.00" y2="320.00" class="grid"/>
<text class="label" x="514.00" y="324.00" text-anchor="end">-1</text>
<line x1="520.00" y1="410.00" x2="900.00" y2="410.00" class="grid"/>
<text class="label" x="514.00" y="414.00" text-anchor="end">0</text>
<line x1="520.00" y1="500.00" x2="900.00" y2="500.00" class="grid"/>
<text class="label" x="514.00" y="504.00" text-anchor="end">1</text>
<line x1="520.00" y1="500.00" x2="520.00" y2="504.00" class="axis"/>
<text class="label" x="520.00" y="516.00" text-anchor="middle">0</text>
<line x1="615.00" y1="500.00" x2="615.00" y2="504.00" class="axis"/>
<text class="label" x="615.00" y="516.00" text-anchor="middle">0.25</text>
<line x1="710.00" y1="500.00" x2="710.00" y2="504.00" class="axis"/>
<text class="label" x="710.00" y="516.00" text-anchor="middle">0.5</text>
<line x1="805.00" y1="500.00" x2="805.00" y2="504.00" class="axis"/>
<text class="label" x="805.00" y="516.00" text-anchor="middle">0.75</text>
<line x1="900.00" y1="500.00" x2="900.00" y2="504.00" class="axis"/>
<text class="label" x="900.00" y="516.00" text-anchor="middle">1</text>
<text class="label" x="710.00" y="38.00" text-anchor="middle" style="font-weight: bold; fill: #fff;">Cp Distribution</text>
<text class="label" x="710.00" y="22.00" text-anchor="middle">(-Cp plotted positive upward)</text>
<text class="label" x="710.00" y="532.00" text-anchor="middle">x/c</text>
<polyline points="520.63,-268.74 522.74,-55.69 526.52,43.38 531.92,102.08 538.89,143.42 547.41,175.71 557.42,201.07 568.85,221.86 581.61,239.28 595.58,254.56 610.65,267.11 626.64,278.16 643.40,288.83 660.82,300.05 678.78,311.15 697.15,322.42 715.79,333.10 734.55,343.56 753.23,353.08 771.67,362.10 789.64,369.80 806.93,376.96 823.32,383.78 838.61,390.66 852.65,396.33 865.22,401.21 876.11,404.93 885.12,407.80 892.07,412.17 896.85,423.10 899.35,448.84 " fill="none" stroke="#4a90d9" stroke-width="2"/>
<polyline points="520.52,-75.88 522.82,419.23 527.41,493.29 534.04,499.45 542.57,492.44 552.90,483.18 564.91,474.50 578.48,466.66 593.46,460.07 609.73,454.44 627.13,449.94 645.52,446.16 664.71,443.20 684.51,440.64 704.69,438.72 725.05,437.03 745.33,435.76 765.28,434.50 784.65,433.63 803.21,432.75 820.71,432.18 836.93,431.65 851.66,431.67 864.70,431.96 875.88,432.84 885.04,434.04 892.04,435.06 896.83,438.51 899.34,448.84 " fill="none" stroke="#e05a5a" stroke-width="2"/>
<circle cx="520.63" cy="-268.74" r="3" fill="#4a90d9" opacity="0.8"/>
<circle cx="522.74" cy="-55.69" r="3" fill="#4a90d9" opacity="0.8"/>
<circle cx="526.52" cy="43.38" r="3" fill="#4a90d9" opacity="0.8"/>
<circle cx="531.92" cy="102.08" r="3" fill="#4a90d9" opacity="0.8"/>
<circle cx="538.89" cy="143.42" r="3" fill="#4a90d9" opacity="0.8"/>
<circle cx="547.41" cy="175.71" r="3" fill="#4a90d9" opacity="0.8"/>
<circle cx="557.42" cy="201.07" r="3" fill="#4a90d9" opacity="0.8"/>
<circle cx="568.85" cy="221.86" r="3" fill="#4a90d9" opacity="0.8"/>
<circle cx="581.61" cy="239.28" r="3" fill="#4a90d9" opacity="0.8"/>
<circle cx="595.58" cy="254.56" r="3" fill="#4a90d9" opacity="0.8"/>
<circle cx="610.65" cy="267.11" r="3" fill="#4a90d9" opacity="0.8"/>
<circle cx="626.64" cy="278.16" r="3" fill="#4a90d9" opacity="0.8"/>
<circle cx="643.40" cy="288.83" r="3" fill="#4a90d9" opacity="0.8"/>
<circle cx="660.82" cy="300.05" r="3" fill="#4a90d9" opacity="0.8"/>
<circle cx="678.78" cy="311.15" r="3" fill="#4a90d9" opacity="0.8"/>
<circle cx="697.15" cy="322.42" r="3" fill="#4a90d9" opacity="0.8"/>
<circle cx="715.79" cy="333.10" r="3" fill="#4a90d9" opacity="0.8"/>
<circle cx="734.55" cy="343.56" r="3" fill="#4a90d9" opacity="0.8"/>
<circle cx="753.23" cy="353.08" r="3" fill="#4a90d9" opacity="0.8"/>
<circle cx="771.67" cy="362.10" r="3" fill="#4a90d9" opacity="0.8"/>
<circle cx="789.64" cy="369.80" r="3" fill="#4a90d9" opacity="0.8"/>
<circle cx="806.93" cy="376.96" r="3" fill="#4a90d9" opacity="0.8"/>
<circle cx="823.32" cy="383.78" r="3" fill="#4a90d9" opacity="0.8"/>
<circle cx="838.61" cy="390.66" r="3" fill="#4a90d9" opacity="0.8"/>
<circle cx="852.65" cy="396.33" r="3" fill="#4a90d9" opacity="0.8"/>
<circle cx="865.22" cy="401.21" r="3" fill="#4a90d9" opacity="0.8"/>
<circle cx="876.11" cy="404.93" r="3" fill="#4a90d9" opacity="0.8"/>
<circle cx="885.12" cy="407.80" r="3" fill="#4a90d9" opacity="0.8"/>
<circle cx="892.07" cy="412.17" r="3" fill="#4a90d9" opacity="0.8"/>
<circle cx="896.85" cy="423.10" r="3" fill="#4a90d9" opacity="0.8"/>
<circle cx="899.35" cy="448.84" r="3" fill="#4a90d9" opacity="0.8"/>
<circle cx="520.52" cy="-75.88" r="3" fill="#e05a5a" opacity="0.8"/>
<circle cx="522.82" cy="419.23" r="3" fill="#e05a5a" opacity="0.8"/>
<circle cx="527.41" cy="493.29" r="3" fill="#e05a5a" opacity="0.8"/>
<circle cx="534.04" cy="499.45" r="3" fill="#e05a5a" opacity="0.8"/>
<circle cx="542.57" cy="492.44" r="3" fill="#e05a5a" opacity="0.8"/>
<circle cx="552.90" cy="483.18" r="3" fill="#e05a5a" opacity="0.8"/>
<circle cx="564.91" cy="474.50" r="3" fill="#e05a5a" opacity="0.8"/>
<circle cx="578.48" cy="466.66" r="3" fill="#e05a5a" opacity="0.8"/>
<circle cx="593.46" cy="460.07" r="3" fill="#e05a5a" opacity="0.8"/>
<circle cx="609.73" cy="454.44" r="3" fill="#e05a5a" opacity="0.8"/>
<circle cx="627.13" cy="449.94" r="3" fill="#e05a5a" opacity="0.8"/>
<circle cx="645.52" cy="446.16" r="3" fill="#e05a5a" opacity="0.8"/>
<circle cx="664.71" cy="443.20" r="3" fill="#e05a5a" opacity="0.8"/>
<circle cx="684.51" cy="440.64" r="3" fill="#e05a5a" opacity="0.8"/>
<circle cx="704.69" cy="438.72" r="3" fill="#e05a5a" opacity="0.8"/>
<circle cx="725.05" cy="437.03" r="3" fill="#e05a5a" opacity="0.8"/>
<circle cx="745.33" cy="435.76" r="3" fill="#e05a5a" opacity="0.8"/>
<circle cx="765.28" cy="434.50" r="3" fill="#e05a5a" opacity="0.8"/>
<circle cx="784.65" cy="433.63" r="3" fill="#e05a5a" opacity="0.8"/>
<circle cx="803.21" cy="432.75" r="3" fill="#e05a5a" opacity="0.8"/>
<circle cx="820.71" cy="432.18" r="3" fill="#e05a5a" opacity="0.8"/>
<circle cx="836.93" cy="431.65" r="3" fill="#e05a5a" opacity="0.8"/>
<circle cx="851.66" cy="431.67" r="3" fill="#e05a5a" opacity="0.8"/>
<circle cx="864.70" cy="431.96" r="3" fill="#e05a5a" opacity="0.8"/>
<circle cx="875.88" cy="432.84" r="3" fill="#e05a5a" opacity="0.8"/>
<circle cx="885.04" cy="434.04" r="3" fill="#e05a5a" opacity="0.8"/>
<circle cx="892.04" cy="435.06" r="3" fill="#e05a5a" opacity="0.8"/>
<circle cx="896.83" cy="438.51" r="3" fill="#e05a5a" opacity="0.8"/>
<circle cx="899.34" cy="448.84" r="3" fill="#e05a5a" opacity="0.8"/>
<text class="label" x="990" y="542" text-anchor="end">Panelz2 — Hess &amp; Smith panel method</text>
</svg>
