<?xml version="1.0" encoding="UTF-8"?>
<svg xmlns="http://www.w3.org/2000/svg"
     width="900" height="700"
     viewBox="0 0 900 700">
<defs>
  <style>
    text { font-family: monospace; font-size: 12px; fill: #ddd; }
    .title { font-size: 16px; fill: #fff; font-weight: bold; }
    .label { font-size: 11px; fill: #aaa; }
    .axis  { stroke: #555; stroke-width: 1; fill: none; }
    .grid  { stroke: #333; stroke-width: 0.5; fill: none; stroke-dasharray: 4,4; }
  </style>
</defs>
<rect width="900" height="700" fill="#1a1a2e"/>
<text class="title" x="450" y="30" text-anchor="middle">MH12011.57%   α = 10.0°   Cl = 1.5148</text>
<polyline points="680.00,200.00 677.95,199.17 672.11,197.58 662.84,195.59 650.17,193.15 634.38,190.20 615.78,186.77 594.69,182.95 571.46,178.84 546.38,174.64 519.72,170.44 491.79,166.31 462.96,162.34 433.57,158.71 403.94,155.53 374.36,152.98 345.08,151.13 316.34,150.11 288.36,149.94 261.33,150.68 235.42,152.25 210.83,154.56 187.85,157.51 166.71,161.10 147.57,165.24 130.60,169.86 115.94,174.85 103.70,180.12 93.93,185.52 86.67,190.82 81.99,195.75 80.00,199.84 81.65,202.94 87.25,205.70 96.16,208.45 108.17,211.04 123.10,213.41 140.80,215.46 161.04,217.18 183.63,218.49 208.35,219.36 234.99,219.76 263.32,219.72 293.06,219.27 323.92,218.48 355.57,217.40 387.68,216.12 419.86,214.70 451.72,213.23 482.85,211.74 512.89,210.29 541.45,208.89 568.16,207.59 592.67,206.37 614.67,205.27 633.86,204.27 649.98,203.36 662.78,202.50 672.08,201.61 677.92,200.63 680.00,200.00 680.00,200.00" fill="#16213e" stroke="#4a90d9" stroke-width="2"/>
<line x1="678.98" y1="199.59" x2="669.31" y2="223.61" stroke="#e07b39" stroke-width="1.5" opacity="0.7"/>
<line x1="675.03" y1="198.38" x2="672.74" y2="206.80" stroke="#e07b39" stroke-width="1.5" opacity="0.7"/>
<line x1="667.48" y1="196.59" x2="667.17" y2="198.00" stroke="#e07b39" stroke-width="1.5" opacity="0.7"/>
<line x1="656.51" y1="194.37" x2="656.78" y2="192.93" stroke="#4a90d9" stroke-width="1.5" opacity="0.7"/>
<line x1="642.28" y1="191.67" x2="642.90" y2="188.35" stroke="#4a90d9" stroke-width="1.5" opacity="0.7"/>
<line x1="625.08" y1="188.49" x2="626.14" y2="182.73" stroke="#4a90d9" stroke-width="1.5" opacity="0.7"/>
<line x1="605.23" y1="184.86" x2="606.86" y2="175.90" stroke="#4a90d9" stroke-width="1.5" opacity="0.7"/>
<line x1="583.07" y1="180.90" x2="585.32" y2="168.21" stroke="#4a90d9" stroke-width="1.5" opacity="0.7"/>
<line x1="558.92" y1="176.74" x2="561.81" y2="159.50" stroke="#4a90d9" stroke-width="1.5" opacity="0.7"/>
<line x1="533.05" y1="172.54" x2="536.49" y2="150.78" stroke="#4a90d9" stroke-width="1.5" opacity="0.7"/>
<line x1="505.75" y1="168.37" x2="509.67" y2="141.86" stroke="#4a90d9" stroke-width="1.5" opacity="0.7"/>
<line x1="477.37" y1="164.32" x2="481.73" y2="132.69" stroke="#4a90d9" stroke-width="1.5" opacity="0.7"/>
<line x1="448.26" y1="160.52" x2="452.91" y2="122.86" stroke="#4a90d9" stroke-width="1.5" opacity="0.7"/>
<line x1="418.76" y1="157.12" x2="423.47" y2="113.08" stroke="#4a90d9" stroke-width="1.5" opacity="0.7"/>
<line x1="389.15" y1="154.26" x2="393.56" y2="103.18" stroke="#4a90d9" stroke-width="1.5" opacity="0.7"/>
<line x1="359.72" y1="152.06" x2="363.39" y2="93.79" stroke="#4a90d9" stroke-width="1.5" opacity="0.7"/>
<line x1="330.71" y1="150.62" x2="333.05" y2="84.77" stroke="#4a90d9" stroke-width="1.5" opacity="0.7"/>
<line x1="302.35" y1="150.03" x2="302.79" y2="76.73" stroke="#4a90d9" stroke-width="1.5" opacity="0.7"/>
<line x1="274.85" y1="150.31" x2="272.66" y2="69.56" stroke="#4a90d9" stroke-width="1.5" opacity="0.7"/>
<line x1="248.38" y1="151.46" x2="243.06" y2="63.73" stroke="#4a90d9" stroke-width="1.5" opacity="0.7"/>
<line x1="223.12" y1="153.40" x2="214.20" y2="58.57" stroke="#4a90d9" stroke-width="1.5" opacity="0.7"/>
<line x1="199.34" y1="156.04" x2="186.13" y2="53.26" stroke="#4a90d9" stroke-width="1.5" opacity="0.7"/>
<line x1="177.28" y1="159.31" x2="158.25" y2="47.10" stroke="#4a90d9" stroke-width="1.5" opacity="0.7"/>
<line x1="157.14" y1="163.17" x2="130.61" y2="40.58" stroke="#4a90d9" stroke-width="1.5" opacity="0.7"/>
<line x1="139.09" y1="167.55" x2="102.48" y2="33.16" stroke="#4a90d9" stroke-width="1.5" opacity="0.7"/>
<line x1="123.27" y1="172.36" x2="72.94" y2="24.50" stroke="#4a90d9" stroke-width="1.5" opacity="0.7"/>
<line x1="109.82" y1="177.49" x2="39.57" y2="14.24" stroke="#4a90d9" stroke-width="1.5" opacity="0.7"/>
<line x1="98.82" y1="182.82" x2="-0.39" y2="3.10" stroke="#4a90d9" stroke-width="1.5" opacity="0.7"/>
<line x1="90.30" y1="188.17" x2="-53.87" y2="-9.19" stroke="#4a90d9" stroke-width="1.5" opacity="0.7"/>
<line x1="84.33" y1="193.29" x2="-140.78" y2="-20.51" stroke="#4a90d9" stroke-width="1.5" opacity="0.7"/>
<line x1="81.00" y1="197.79" x2="-326.11" y2="0.26" stroke="#4a90d9" stroke-width="1.5" opacity="0.7"/>
<line x1="80.83" y1="201.39" x2="-205.26" y2="353.29" stroke="#4a90d9" stroke-width="1.5" opacity="0.7"/>
<line x1="84.45" y1="204.32" x2="87.17" y2="198.80" stroke="#e07b39" stroke-width="1.5" opacity="0.7"/>
<line x1="91.71" y1="207.08" x2="108.10" y2="154.02" stroke="#e07b39" stroke-width="1.5" opacity="0.7"/>
<line x1="102.17" y1="209.75" x2="114.75" y2="151.46" stroke="#e07b39" stroke-width="1.5" opacity="0.7"/>
<line x1="115.64" y1="212.23" x2="124.22" y2="157.94" stroke="#e07b39" stroke-width="1.5" opacity="0.7"/>
<line x1="131.95" y1="214.43" x2="137.57" y2="165.97" stroke="#e07b39" stroke-width="1.5" opacity="0.7"/>
<line x1="150.92" y1="216.32" x2="154.56" y2="173.47" stroke="#e07b39" stroke-width="1.5" opacity="0.7"/>
<line x1="172.34" y1="217.83" x2="174.52" y2="180.12" stroke="#e07b39" stroke-width="1.5" opacity="0.7"/>
<line x1="195.99" y1="218.93" x2="197.17" y2="185.56" stroke="#e07b39" stroke-width="1.5" opacity="0.7"/>
<line x1="221.67" y1="219.56" x2="222.11" y2="189.94" stroke="#e07b39" stroke-width="1.5" opacity="0.7"/>
<line x1="249.16" y1="219.74" x2="249.12" y2="193.12" stroke="#e07b39" stroke-width="1.5" opacity="0.7"/>
<line x1="278.19" y1="219.49" x2="277.82" y2="195.39" stroke="#e07b39" stroke-width="1.5" opacity="0.7"/>
<line x1="308.49" y1="218.87" x2="307.93" y2="196.75" stroke="#e07b39" stroke-width="1.5" opacity="0.7"/>
<line x1="339.75" y1="217.94" x2="339.04" y2="197.52" stroke="#e07b39" stroke-width="1.5" opacity="0.7"/>
<line x1="371.62" y1="216.76" x2="370.86" y2="197.63" stroke="#e07b39" stroke-width="1.5" opacity="0.7"/>
<line x1="403.77" y1="215.41" x2="402.97" y2="197.40" stroke="#e07b39" stroke-width="1.5" opacity="0.7"/>
<line x1="435.79" y1="213.96" x2="435.00" y2="196.81" stroke="#e07b39" stroke-width="1.5" opacity="0.7"/>
<line x1="467.28" y1="212.49" x2="466.50" y2="196.17" stroke="#e07b39" stroke-width="1.5" opacity="0.7"/>
<line x1="497.87" y1="211.02" x2="497.11" y2="195.29" stroke="#e07b39" stroke-width="1.5" opacity="0.7"/>
<line x1="527.17" y1="209.59" x2="526.42" y2="194.45" stroke="#e07b39" stroke-width="1.5" opacity="0.7"/>
<line x1="554.80" y1="208.24" x2="554.08" y2="193.47" stroke="#e07b39" stroke-width="1.5" opacity="0.7"/>
<line x1="580.41" y1="206.98" x2="579.70" y2="192.56" stroke="#e07b39" stroke-width="1.5" opacity="0.7"/>
<line x1="603.67" y1="205.82" x2="602.95" y2="191.39" stroke="#e07b39" stroke-width="1.5" opacity="0.7"/>
<line x1="624.27" y1="204.77" x2="623.50" y2="190.15" stroke="#e07b39" stroke-width="1.5" opacity="0.7"/>
<line x1="641.92" y1="203.81" x2="641.06" y2="188.61" stroke="#e07b39" stroke-width="1.5" opacity="0.7"/>
<line x1="656.38" y1="202.93" x2="655.31" y2="186.94" stroke="#e07b39" stroke-width="1.5" opacity="0.7"/>
<line x1="667.43" y1="202.06" x2="665.83" y2="185.43" stroke="#e07b39" stroke-width="1.5" opacity="0.7"/>
<line x1="675.00" y1="201.12" x2="671.86" y2="182.38" stroke="#e07b39" stroke-width="1.5" opacity="0.7"/>
<line x1="678.96" y1="200.32" x2="671.45" y2="175.54" stroke="#e07b39" stroke-width="1.5" opacity="0.7"/>
<text class="label" x="80.00" y="280.00">← chord →     (arrows: blue = suction, orange = pressure)</text>
<line x1="80.00" y1="200.00" x2="680.00" y2="200.00" class="axis"/>
<line x1="80.00" y1="460.00" x2="680.00" y2="460.00" class="axis"/>
<line x1="80.00" y1="580.00" x2="80.00" y2="220.00" class="axis"/>
<line x1="80.00" y1="220.00" x2="680.00" y2="220.00" class="grid"/>
<text class="label" x="74.00" y="224.00" text-anchor="end">-2</text>
<line x1="80.00" y1="340.00" x2="680.00" y2="340.00" class="grid"/>
<text class="label" x="74.00" y="344.00" text-anchor="end">-1</text>
<line x1="80.00" y1="460.00" x2="680.00" y2="460.00" class="grid"/>
<text class="label" x="74.00" y="464.00" text-anchor="end">0</text>
<line x1="80.00" y1="580.00" x2="680.00" y2="580.00" class="grid"/>
<text class="label" x="74.00" y="584.00" text-anchor="end">1</text>
<text class="label" x="80.00" y="475.00" text-anchor="middle">0</text>
<text class="label" x="230.00" y="475.00" text-anchor="middle">0.25</text>
<text class="label" x="380.00" y="475.00" text-anchor="middle">0.5</text>
<text class="label" x="530.00" y="475.00" text-anchor="middle">0.75</text>
<text class="label" x="680.00" y="475.00" text-anchor="middle">1</text>
<text class="label" x="380.00" y="212.00" text-anchor="middle">Cp distribution (blue = upper surface, red = lower)</text>
<text class="label" x="685.00" y="464.00">x/c</text>
<polyline points="81.00,-444.99 84.33,-160.91 90.30,-28.82 98.82,49.44 109.82,104.56 123.27,147.61 139.09,181.43 157.14,209.15 177.28,232.38 199.34,252.75 223.12,269.49 248.38,284.22 274.85,298.45 302.35,313.41 330.71,328.20 359.72,343.23 389.15,357.47 418.76,371.41 448.26,384.11 477.37,396.14 505.75,406.39 533.05,415.94 558.92,425.04 583.07,434.22 605.23,441.78 625.08,448.29 642.28,453.24 656.51,457.07 667.48,462.89 675.03,477.46 678.98,511.79 " fill="none" stroke="#4a90d9" stroke-width="2"/>
<polyline points="80.83,-187.84 84.45,472.31 91.71,571.06 102.17,579.27 115.64,569.93 131.95,557.57 150.92,546.00 172.34,535.55 195.99,526.76 221.67,519.25 249.16,513.25 278.19,508.22 308.49,504.27 339.75,500.86 371.62,498.29 403.77,496.05 435.79,494.34 467.28,492.67 497.87,491.50 527.17,490.33 554.80,489.57 580.41,488.87 603.67,488.90 624.27,489.27 641.92,490.46 656.38,492.05 667.43,493.42 675.00,498.01 678.96,511.79 " fill="none" stroke="#e05a5a" stroke-width="2"/>
<circle cx="81.00" cy="-444.99" r="3" fill="#4a90d9" opacity="0.8"/>
<circle cx="84.33" cy="-160.91" r="3" fill="#4a90d9" opacity="0.8"/>
<circle cx="90.30" cy="-28.82" r="3" fill="#4a90d9" opacity="0.8"/>
<circle cx="98.82" cy="49.44" r="3" fill="#4a90d9" opacity="0.8"/>
<circle cx="109.82" cy="104.56" r="3" fill="#4a90d9" opacity="0.8"/>
<circle cx="123.27" cy="147.61" r="3" fill="#4a90d9" opacity="0.8"/>
<circle cx="139.09" cy="181.43" r="3" fill="#4a90d9" opacity="0.8"/>
<circle cx="157.14" cy="209.15" r="3" fill="#4a90d9" opacity="0.8"/>
<circle cx="177.28" cy="232.38" r="3" fill="#4a90d9" opacity="0.8"/>
<circle cx="199.34" cy="252.75" r="3" fill="#4a90d9" opacity="0.8"/>
<circle cx="223.12" cy="269.49" r="3" fill="#4a90d9" opacity="0.8"/>
<circle cx="248.38" cy="284.22" r="3" fill="#4a90d9" opacity="0.8"/>
<circle cx="274.85" cy="298.45" r="3" fill="#4a90d9" opacity="0.8"/>
<circle cx="302.35" cy="313.41" r="3" fill="#4a90d9" opacity="0.8"/>
<circle cx="330.71" cy="328.20" r="3" fill="#4a90d9" opacity="0.8"/>
<circle cx="359.72" cy="343.23" r="3" fill="#4a90d9" opacity="0.8"/>
<circle cx="389.15" cy="357.47" r="3" fill="#4a90d9" opacity="0.8"/>
<circle cx="418.76" cy="371.41" r="3" fill="#4a90d9" opacity="0.8"/>
<circle cx="448.26" cy="384.11" r="3" fill="#4a90d9" opacity="0.8"/>
<circle cx="477.37" cy="396.14" r="3" fill="#4a90d9" opacity="0.8"/>
<circle cx="505.75" cy="406.39" r="3" fill="#4a90d9" opacity="0.8"/>
<circle cx="533.05" cy="415.94" r="3" fill="#4a90d9" opacity="0.8"/>
<circle cx="558.92" cy="425.04" r="3" fill="#4a90d9" opacity="0.8"/>
<circle cx="583.07" cy="434.22" r="3" fill="#4a90d9" opacity="0.8"/>
<circle cx="605.23" cy="441.78" r="3" fill="#4a90d9" opacity="0.8"/>
<circle cx="625.08" cy="448.29" r="3" fill="#4a90d9" opacity="0.8"/>
<circle cx="642.28" cy="453.24" r="3" fill="#4a90d9" opacity="0.8"/>
<circle cx="656.51" cy="457.07" r="3" fill="#4a90d9" opacity="0.8"/>
<circle cx="667.48" cy="462.89" r="3" fill="#4a90d9" opacity="0.8"/>
<circle cx="675.03" cy="477.46" r="3" fill="#4a90d9" opacity="0.8"/>
<circle cx="678.98" cy="511.79" r="3" fill="#4a90d9" opacity="0.8"/>
<circle cx="80.83" cy="-187.84" r="3" fill="#e05a5a" opacity="0.8"/>
<circle cx="84.45" cy="472.31" r="3" fill="#e05a5a" opacity="0.8"/>
<circle cx="91.71" cy="571.06" r="3" fill="#e05a5a" opacity="0.8"/>
<circle cx="102.17" cy="579.27" r="3" fill="#e05a5a" opacity="0.8"/>
<circle cx="115.64" cy="569.93" r="3" fill="#e05a5a" opacity="0.8"/>
<circle cx="131.95" cy="557.57" r="3" fill="#e05a5a" opacity="0.8"/>
<circle cx="150.92" cy="546.00" r="3" fill="#e05a5a" opacity="0.8"/>
<circle cx="172.34" cy="535.55" r="3" fill="#e05a5a" opacity="0.8"/>
<circle cx="195.99" cy="526.76" r="3" fill="#e05a5a" opacity="0.8"/>
<circle cx="221.67" cy="519.25" r="3" fill="#e05a5a" opacity="0.8"/>
<circle cx="249.16" cy="513.25" r="3" fill="#e05a5a" opacity="0.8"/>
<circle cx="278.19" cy="508.22" r="3" fill="#e05a5a" opacity="0.8"/>
<circle cx="308.49" cy="504.27" r="3" fill="#e05a5a" opacity="0.8"/>
<circle cx="339.75" cy="500.86" r="3" fill="#e05a5a" opacity="0.8"/>
<circle cx="371.62" cy="498.29" r="3" fill="#e05a5a" opacity="0.8"/>
<circle cx="403.77" cy="496.05" r="3" fill="#e05a5a" opacity="0.8"/>
<circle cx="435.79" cy="494.34" r="3" fill="#e05a5a" opacity="0.8"/>
<circle cx="467.28" cy="492.67" r="3" fill="#e05a5a" opacity="0.8"/>
<circle cx="497.87" cy="491.50" r="3" fill="#e05a5a" opacity="0.8"/>
<circle cx="527.17" cy="490.33" r="3" fill="#e05a5a" opacity="0.8"/>
<circle cx="554.80" cy="489.57" r="3" fill="#e05a5a" opacity="0.8"/>
<circle cx="580.41" cy="488.87" r="3" fill="#e05a5a" opacity="0.8"/>
<circle cx="603.67" cy="488.90" r="3" fill="#e05a5a" opacity="0.8"/>
<circle cx="624.27" cy="489.27" r="3" fill="#e05a5a" opacity="0.8"/>
<circle cx="641.92" cy="490.46" r="3" fill="#e05a5a" opacity="0.8"/>
<circle cx="656.38" cy="492.05" r="3" fill="#e05a5a" opacity="0.8"/>
<circle cx="667.43" cy="493.42" r="3" fill="#e05a5a" opacity="0.8"/>
<circle cx="675.00" cy="498.01" r="3" fill="#e05a5a" opacity="0.8"/>
<circle cx="678.96" cy="511.79" r="3" fill="#e05a5a" opacity="0.8"/>
<text class="label" x="890" y="692" text-anchor="end">Panelz2 — Hess &amp; Smith panel method</text>
</svg>
