<?xml version="1.0" encoding="UTF-8"?>
<svg xmlns="http://www.w3.org/2000/svg"
     width="1000" height="550"
     viewBox="0 0 1000 550">
<defs>
  <style>
    text { font-family: monospace; font-size: 12px; fill: #ddd; }
    .title { font-size: 16px; fill: #fff; font-weight: bold; }
    .label { font-size: 11px; fill: #aaa; }
    .axis  { stroke: #555; stroke-width: 1; fill: none; }
    .grid  { stroke: #333; stroke-width: 0.5; fill: none; stroke-dasharray: 4,4; }
  </style>
</defs>
<rect width="1000" height="550" fill="#1a1a2e"/>
<text class="title" x="500" y="30" text-anchor="middle">NACA-0015   α = 10.0°   Cl = 1.1504</text>
<polyline points="430.00,274.56 416.00,272.18 402.00,269.93 374.00,265.82 346.00,262.18 318.00,259.03 290.00,256.47 262.00,254.69 234.00,253.99 220.00,254.20 206.00,254.92 192.00,256.29 178.00,258.61 171.00,260.30 164.00,262.56 157.00,265.85 153.50,268.37 150.00,275.00 153.50,281.63 157.00,284.15 164.00,287.44 171.00,289.70 178.00,291.39 192.00,293.71 206.00,295.08 220.00,295.80 234.00,296.01 262.00,295.31 290.00,293.53 318.00,290.97 346.00,287.82 374.00,284.18 402.00,280.07 416.00,277.82 430.00,275.44 430.00,274.56" fill="#16213e" stroke="#4a90d9" stroke-width="2"/>
<line x1="423.00" y1="273.37" x2="422.04" y2="279.04" stroke="#e07b39" stroke-width="1.5" opacity="0.7"/>
<line x1="409.00" y1="271.05" x2="408.66" y2="273.17" stroke="#e07b39" stroke-width="1.5" opacity="0.7"/>
<line x1="388.00" y1="267.88" x2="388.22" y2="266.35" stroke="#4a90d9" stroke-width="1.5" opacity="0.7"/>
<line x1="360.00" y1="264.00" x2="360.72" y2="258.43" stroke="#4a90d9" stroke-width="1.5" opacity="0.7"/>
<line x1="332.00" y1="260.60" x2="333.05" y2="251.24" stroke="#4a90d9" stroke-width="1.5" opacity="0.7"/>
<line x1="304.00" y1="257.75" x2="305.23" y2="244.31" stroke="#4a90d9" stroke-width="1.5" opacity="0.7"/>
<line x1="276.00" y1="255.58" x2="277.16" y2="237.39" stroke="#4a90d9" stroke-width="1.5" opacity="0.7"/>
<line x1="248.00" y1="254.34" x2="248.60" y2="230.18" stroke="#4a90d9" stroke-width="1.5" opacity="0.7"/>
<line x1="227.00" y1="254.10" x2="226.54" y2="223.63" stroke="#4a90d9" stroke-width="1.5" opacity="0.7"/>
<line x1="213.00" y1="254.56" x2="211.22" y2="219.67" stroke="#4a90d9" stroke-width="1.5" opacity="0.7"/>
<line x1="199.00" y1="255.60" x2="195.02" y2="214.95" stroke="#4a90d9" stroke-width="1.5" opacity="0.7"/>
<line x1="185.00" y1="257.45" x2="176.97" y2="208.99" stroke="#4a90d9" stroke-width="1.5" opacity="0.7"/>
<line x1="174.50" y1="259.46" x2="160.52" y2="201.49" stroke="#4a90d9" stroke-width="1.5" opacity="0.7"/>
<line x1="167.50" y1="261.43" x2="146.47" y2="196.29" stroke="#4a90d9" stroke-width="1.5" opacity="0.7"/>
<line x1="160.50" y1="264.20" x2="125.30" y2="189.31" stroke="#4a90d9" stroke-width="1.5" opacity="0.7"/>
<line x1="155.25" y1="267.11" x2="91.38" y2="178.51" stroke="#4a90d9" stroke-width="1.5" opacity="0.7"/>
<line x1="151.75" y1="271.69" x2="66.78" y2="226.81" stroke="#4a90d9" stroke-width="1.5" opacity="0.7"/>
<line x1="151.75" y1="278.31" x2="150.54" y2="278.95" stroke="#4a90d9" stroke-width="1.5" opacity="0.7"/>
<line x1="155.25" y1="282.89" x2="169.57" y2="263.03" stroke="#e07b39" stroke-width="1.5" opacity="0.7"/>
<line x1="160.50" y1="285.80" x2="170.66" y2="264.17" stroke="#e07b39" stroke-width="1.5" opacity="0.7"/>
<line x1="167.50" y1="288.57" x2="173.56" y2="269.78" stroke="#e07b39" stroke-width="1.5" opacity="0.7"/>
<line x1="174.50" y1="290.54" x2="178.35" y2="274.56" stroke="#e07b39" stroke-width="1.5" opacity="0.7"/>
<line x1="185.00" y1="292.55" x2="187.12" y2="279.79" stroke="#e07b39" stroke-width="1.5" opacity="0.7"/>
<line x1="199.00" y1="294.40" x2="199.90" y2="285.16" stroke="#e07b39" stroke-width="1.5" opacity="0.7"/>
<line x1="213.00" y1="295.44" x2="213.36" y2="288.44" stroke="#e07b39" stroke-width="1.5" opacity="0.7"/>
<line x1="227.00" y1="295.90" x2="227.08" y2="290.37" stroke="#e07b39" stroke-width="1.5" opacity="0.7"/>
<line x1="248.00" y1="295.66" x2="247.90" y2="291.50" stroke="#e07b39" stroke-width="1.5" opacity="0.7"/>
<line x1="276.00" y1="294.42" x2="275.82" y2="291.57" stroke="#e07b39" stroke-width="1.5" opacity="0.7"/>
<line x1="304.00" y1="292.25" x2="303.79" y2="289.95" stroke="#e07b39" stroke-width="1.5" opacity="0.7"/>
<line x1="332.00" y1="289.40" x2="331.76" y2="287.28" stroke="#e07b39" stroke-width="1.5" opacity="0.7"/>
<line x1="360.00" y1="286.00" x2="359.71" y2="283.81" stroke="#e07b39" stroke-width="1.5" opacity="0.7"/>
<line x1="388.00" y1="282.12" x2="387.62" y2="279.54" stroke="#e07b39" stroke-width="1.5" opacity="0.7"/>
<line x1="409.00" y1="278.95" x2="408.44" y2="275.43" stroke="#e07b39" stroke-width="1.5" opacity="0.7"/>
<line x1="423.00" y1="276.63" x2="422.04" y2="270.96" stroke="#e07b39" stroke-width="1.5" opacity="0.7"/>
<text class="label" x="290.00" y="395.00" text-anchor="middle">← chord →   (arrows: blue = suction, orange = pressure)</text>
<line x1="150.00" y1="275.00" x2="430.00" y2="275.00" class="axis"/>
<line x1="520.00" y1="410.00" x2="900.00" y2="410.00" class="axis"/>
<line x1="520.00" y1="500.00" x2="520.00" y2="50.00" class="axis"/>
<line x1="900.00" y1="500.00" x2="900.00" y2="50.00" class="grid"/>
<line x1="520.00" y1="50.00" x2="900.00" y2="50.00" class="grid"/>
<text class="label" x="514.00" y="54.00" text-anchor="end">-4</text>
<line x1="520.00" y1="140.00" x2="900.00" y2="140.00" class="grid"/>
<text class="label" x="514.00" y="144.00" text-anchor="end">-3</text>
<line x1="520.00" y1="230.00" x2="900.00" y2="230.00" class="grid"/>
<text class="label" x="514.00" y="234.00" text-anchor="end">-2</text>
<line x1="520.00" y1="320.00" x2="900.00" y2="320.00" class="grid"/>
<text class="label" x="514.00" y="324.00" text-anchor="end">-1</text>
<line x1="520.00" y1="410.00" x2="900.00" y2="410.00" class="grid"/>
<text class="label" x="514.00" y="414.00" text-anchor="end">0</text>
<line x1="520.00" y1="500.00" x2="900.00" y2="500.00" class="grid"/>
<text class="label" x="514.00" y="504.00" text-anchor="end">1</text>
<line x1="520.00" y1="500.00" x2="520.00" y2="504.00" class="axis"/>
<text class="label" x="520.00" y="516.00" text-anchor="middle">0</text>
<line x1="615.00" y1="500.00" x2="615.00" y2="504.00" class="axis"/>
<text class="label" x="615.00" y="516.00" text-anchor="middle">0.25</text>
<line x1="710.00" y1="500.00" x2="710.00" y2="504.00" class="axis"/>
<text class="label" x="710.00" y="516.00" text-anchor="middle">0.5</text>
<line x1="805.00" y1="500.00" x2="805.00" y2="504.00" class="axis"/>
<text class="label" x="805.00" y="516.00" text-anchor="middle">0.75</text>
<line x1="900.00" y1="500.00" x2="900.00" y2="504.00" class="axis"/>
<text class="label" x="900.00" y="516.00" text-anchor="middle">1</text>
<text class="label" x="710.00" y="38.00" text-anchor="middle" style="font-weight: bold; fill: #fff;">Cp Distribution</text>
<text class="label" x="710.00" y="22.00" text-anchor="middle">(-Cp plotted positive upward)</text>
<text class="label" x="710.00" y="532.00" text-anchor="middle">x/c</text>
<polyline points="522.38,64.08 527.12,16.80 534.25,112.09 543.75,163.57 553.25,195.34 567.50,233.16 586.50,262.94 605.50,284.22 624.50,300.31 653.00,322.99 691.00,344.37 729.00,361.41 767.00,376.07 805.00,389.79 843.00,404.45 871.50,417.72 890.50,430.71 " fill="none" stroke="#4a90d9" stroke-width="2"/>
<polyline points="522.38,405.09 527.12,498.14 534.25,496.01 543.75,481.08 553.25,469.18 567.50,456.57 586.50,443.40 605.50,435.24 624.50,429.92 653.00,424.96 691.00,420.27 729.00,418.31 767.00,417.67 805.00,417.96 843.00,419.42 871.50,422.81 890.50,430.71 " fill="none" stroke="#e05a5a" stroke-width="2"/>
<circle cx="522.38" cy="64.08" r="3" fill="#4a90d9" opacity="0.8"/>
<circle cx="527.12" cy="16.80" r="3" fill="#4a90d9" opacity="0.8"/>
<circle cx="534.25" cy="112.09" r="3" fill="#4a90d9" opacity="0.8"/>
<circle cx="543.75" cy="163.57" r="3" fill="#4a90d9" opacity="0.8"/>
<circle cx="553.25" cy="195.34" r="3" fill="#4a90d9" opacity="0.8"/>
<circle cx="567.50" cy="233.16" r="3" fill="#4a90d9" opacity="0.8"/>
<circle cx="586.50" cy="262.94" r="3" fill="#4a90d9" opacity="0.8"/>
<circle cx="605.50" cy="284.22" r="3" fill="#4a90d9" opacity="0.8"/>
<circle cx="624.50" cy="300.31" r="3" fill="#4a90d9" opacity="0.8"/>
<circle cx="653.00" cy="322.99" r="3" fill="#4a90d9" opacity="0.8"/>
<circle cx="691.00" cy="344.37" r="3" fill="#4a90d9" opacity="0.8"/>
<circle cx="729.00" cy="361.41" r="3" fill="#4a90d9" opacity="0.8"/>
<circle cx="767.00" cy="376.07" r="3" fill="#4a90d9" opacity="0.8"/>
<circle cx="805.00" cy="389.79" r="3" fill="#4a90d9" opacity="0.8"/>
<circle cx="843.00" cy="404.45" r="3" fill="#4a90d9" opacity="0.8"/>
<circle cx="871.50" cy="417.72" r="3" fill="#4a90d9" opacity="0.8"/>
<circle cx="890.50" cy="430.71" r="3" fill="#4a90d9" opacity="0.8"/>
<circle cx="522.38" cy="405.09" r="3" fill="#e05a5a" opacity="0.8"/>
<circle cx="527.12" cy="498.14" r="3" fill="#e05a5a" opacity="0.8"/>
<circle cx="534.25" cy="496.01" r="3" fill="#e05a5a" opacity="0.8"/>
<circle cx="543.75" cy="481.08" r="3" fill="#e05a5a" opacity="0.8"/>
<circle cx="553.25" cy="469.18" r="3" fill="#e05a5a" opacity="0.8"/>
<circle cx="567.50" cy="456.57" r="3" fill="#e05a5a" opacity="0.8"/>
<circle cx="586.50" cy="443.40" r="3" fill="#e05a5a" opacity="0.8"/>
<circle cx="605.50" cy="435.24" r="3" fill="#e05a5a" opacity="0.8"/>
<circle cx="624.50" cy="429.92" r="3" fill="#e05a5a" opacity="0.8"/>
<circle cx="653.00" cy="424.96" r="3" fill="#e05a5a" opacity="0.8"/>
<circle cx="691.00" cy="420.27" r="3" fill="#e05a5a" opacity="0.8"/>
<circle cx="729.00" cy="418.31" r="3" fill="#e05a5a" opacity="0.8"/>
<circle cx="767.00" cy="417.67" r="3" fill="#e05a5a" opacity="0.8"/>
<circle cx="805.00" cy="417.96" r="3" fill="#e05a5a" opacity="0.8"/>
<circle cx="843.00" cy="419.42" r="3" fill="#e05a5a" opacity="0.8"/>
<circle cx="871.50" cy="422.81" r="3" fill="#e05a5a" opacity="0.8"/>
<circle cx="890.50" cy="430.71" r="3" fill="#e05a5a" opacity="0.8"/>
<text class="label" x="990" y="542" text-anchor="end">Panelz2 — Hess &amp; Smith panel method</text>
</svg>
