<?xml version="1.0" encoding="UTF-8"?>
<svg xmlns="http://www.w3.org/2000/svg"
     width="1000" height="550"
     viewBox="0 0 1000 550">
<defs>
  <style>
    text { font-family: monospace; font-size: 12px; fill: #ddd; }
    .title { font-size: 16px; fill: #fff; font-weight: bold; }
    .label { font-size: 11px; fill: #aaa; }
    .axis  { stroke: #555; stroke-width: 1; fill: none; }
    .grid  { stroke: #333; stroke-width: 0.5; fill: none; stroke-dasharray: 4,4; }
  </style>
</defs>
<rect width="1000" height="550" fill="#1a1a2e"/>
<text class="title" x="500" y="30" text-anchor="middle">NACA0010-64   α = 10.0°   Cl = 1.1385</text>
<polyline points="430.00,274.72 416.00,272.60 402.00,270.64 374.00,267.25 346.00,264.55 318.00,262.59 290.00,261.40 262.00,261.00 234.00,261.40 206.00,262.65 192.00,263.64 178.00,265.11 171.00,266.10 164.00,267.38 157.00,269.28 153.50,270.77 150.00,275.00 153.50,279.23 157.00,280.72 164.00,282.62 171.00,283.90 178.00,284.89 192.00,286.36 206.00,287.35 234.00,288.60 262.00,289.00 290.00,288.60 318.00,287.41 346.00,285.45 374.00,282.75 402.00,279.36 416.00,277.40 430.00,275.28 430.00,274.72" fill="#16213e" stroke="#4a90d9" stroke-width="2"/>
<line x1="423.00" y1="273.66" x2="422.29" y2="278.37" stroke="#e07b39" stroke-width="1.5" opacity="0.7"/>
<line x1="409.00" y1="271.62" x2="408.87" y2="272.53" stroke="#e07b39" stroke-width="1.5" opacity="0.7"/>
<line x1="388.00" y1="268.95" x2="388.35" y2="266.03" stroke="#4a90d9" stroke-width="1.5" opacity="0.7"/>
<line x1="360.00" y1="265.90" x2="360.68" y2="258.87" stroke="#4a90d9" stroke-width="1.5" opacity="0.7"/>
<line x1="332.00" y1="263.57" x2="332.74" y2="252.95" stroke="#4a90d9" stroke-width="1.5" opacity="0.7"/>
<line x1="304.00" y1="262.00" x2="304.59" y2="248.02" stroke="#4a90d9" stroke-width="1.5" opacity="0.7"/>
<line x1="276.00" y1="261.20" x2="276.25" y2="243.86" stroke="#4a90d9" stroke-width="1.5" opacity="0.7"/>
<line x1="248.00" y1="261.20" x2="247.70" y2="240.04" stroke="#4a90d9" stroke-width="1.5" opacity="0.7"/>
<line x1="220.00" y1="262.03" x2="218.83" y2="235.68" stroke="#4a90d9" stroke-width="1.5" opacity="0.7"/>
<line x1="199.00" y1="263.15" x2="196.74" y2="231.37" stroke="#4a90d9" stroke-width="1.5" opacity="0.7"/>
<line x1="185.00" y1="264.38" x2="180.89" y2="225.13" stroke="#4a90d9" stroke-width="1.5" opacity="0.7"/>
<line x1="174.50" y1="265.60" x2="167.65" y2="217.36" stroke="#4a90d9" stroke-width="1.5" opacity="0.7"/>
<line x1="167.50" y1="266.74" x2="156.88" y2="208.54" stroke="#4a90d9" stroke-width="1.5" opacity="0.7"/>
<line x1="160.50" y1="268.33" x2="139.34" y2="190.32" stroke="#4a90d9" stroke-width="1.5" opacity="0.7"/>
<line x1="155.25" y1="270.02" x2="106.48" y2="155.64" stroke="#4a90d9" stroke-width="1.5" opacity="0.7"/>
<line x1="151.75" y1="272.88" x2="13.95" y2="158.89" stroke="#4a90d9" stroke-width="1.5" opacity="0.7"/>
<line x1="151.75" y1="277.12" x2="133.39" y2="292.31" stroke="#4a90d9" stroke-width="1.5" opacity="0.7"/>
<line x1="155.25" y1="279.98" x2="164.74" y2="257.72" stroke="#e07b39" stroke-width="1.5" opacity="0.7"/>
<line x1="160.50" y1="281.67" x2="166.84" y2="258.28" stroke="#e07b39" stroke-width="1.5" opacity="0.7"/>
<line x1="167.50" y1="283.26" x2="171.25" y2="262.70" stroke="#e07b39" stroke-width="1.5" opacity="0.7"/>
<line x1="174.50" y1="284.40" x2="177.09" y2="266.16" stroke="#e07b39" stroke-width="1.5" opacity="0.7"/>
<line x1="185.00" y1="285.62" x2="186.64" y2="269.96" stroke="#e07b39" stroke-width="1.5" opacity="0.7"/>
<line x1="199.00" y1="286.85" x2="199.90" y2="274.12" stroke="#e07b39" stroke-width="1.5" opacity="0.7"/>
<line x1="220.00" y1="287.97" x2="220.47" y2="277.38" stroke="#e07b39" stroke-width="1.5" opacity="0.7"/>
<line x1="248.00" y1="288.80" x2="248.11" y2="281.13" stroke="#e07b39" stroke-width="1.5" opacity="0.7"/>
<line x1="276.00" y1="288.80" x2="275.92" y2="283.27" stroke="#e07b39" stroke-width="1.5" opacity="0.7"/>
<line x1="304.00" y1="288.00" x2="303.83" y2="284.02" stroke="#e07b39" stroke-width="1.5" opacity="0.7"/>
<line x1="332.00" y1="286.43" x2="331.80" y2="283.51" stroke="#e07b39" stroke-width="1.5" opacity="0.7"/>
<line x1="360.00" y1="284.10" x2="359.77" y2="281.73" stroke="#e07b39" stroke-width="1.5" opacity="0.7"/>
<line x1="388.00" y1="281.05" x2="387.72" y2="278.70" stroke="#e07b39" stroke-width="1.5" opacity="0.7"/>
<line x1="409.00" y1="278.38" x2="408.60" y2="275.50" stroke="#e07b39" stroke-width="1.5" opacity="0.7"/>
<line x1="423.00" y1="276.34" x2="422.29" y2="271.63" stroke="#e07b39" stroke-width="1.5" opacity="0.7"/>
<text class="label" x="290.00" y="395.00" text-anchor="middle">← chord →   (arrows: blue = suction, orange = pressure)</text>
<line x1="150.00" y1="275.00" x2="430.00" y2="275.00" class="axis"/>
<line x1="520.00" y1="410.00" x2="900.00" y2="410.00" class="axis"/>
<line x1="520.00" y1="500.00" x2="520.00" y2="50.00" class="axis"/>
<line x1="900.00" y1="500.00" x2="900.00" y2="50.00" class="grid"/>
<line x1="520.00" y1="50.00" x2="900.00" y2="50.00" class="grid"/>
<text class="label" x="514.00" y="54.00" text-anchor="end">-4</text>
<line x1="520.00" y1="140.00" x2="900.00" y2="140.00" class="grid"/>
<text class="label" x="514.00" y="144.00" text-anchor="end">-3</text>
<line x1="520.00" y1="230.00" x2="900.00" y2="230.00" class="grid"/>
<text class="label" x="514.00" y="234.00" text-anchor="end">-2</text>
<line x1="520.00" y1="320.00" x2="900.00" y2="320.00" class="grid"/>
<text class="label" x="514.00" y="324.00" text-anchor="end">-1</text>
<line x1="520.00" y1="410.00" x2="900.00" y2="410.00" class="grid"/>
<text class="label" x="514.00" y="414.00" text-anchor="end">0</text>
<line x1="520.00" y1="500.00" x2="900.00" y2="500.00" class="grid"/>
<text class="label" x="514.00" y="504.00" text-anchor="end">1</text>
<line x1="520.00" y1="500.00" x2="520.00" y2="504.00" class="axis"/>
<text class="label" x="520.00" y="516.00" text-anchor="middle">0</text>
<line x1="615.00" y1="500.00" x2="615.00" y2="504.00" class="axis"/>
<text class="label" x="615.00" y="516.00" text-anchor="middle">0.25</text>
<line x1="710.00" y1="500.00" x2="710.00" y2="504.00" class="axis"/>
<text class="label" x="710.00" y="516.00" text-anchor="middle">0.5</text>
<line x1="805.00" y1="500.00" x2="805.00" y2="504.00" class="axis"/>
<text class="label" x="805.00" y="516.00" text-anchor="middle">0.75</text>
<line x1="900.00" y1="500.00" x2="900.00" y2="504.00" class="axis"/>
<text class="label" x="900.00" y="516.00" text-anchor="middle">1</text>
<text class="label" x="710.00" y="38.00" text-anchor="middle" style="font-weight: bold; fill: #fff;">Cp Distribution</text>
<text class="label" x="710.00" y="22.00" text-anchor="middle">(-Cp plotted positive upward)</text>
<text class="label" x="710.00" y="532.00" text-anchor="middle">x/c</text>
<polyline points="522.38,-233.81 527.12,-37.66 534.25,119.03 543.75,197.03 553.25,234.56 567.50,267.94 586.50,295.32 615.00,315.06 653.00,333.82 691.00,347.57 729.00,359.64 767.00,371.67 805.00,384.57 843.00,399.42 871.50,413.29 890.50,427.14 " fill="none" stroke="#4a90d9" stroke-width="2"/>
<polyline points="522.38,324.20 527.12,497.12 534.25,497.26 543.75,485.24 553.25,476.32 567.50,466.71 586.50,455.96 615.00,448.17 653.00,437.60 691.00,429.91 729.00,424.35 767.00,420.56 805.00,418.56 843.00,418.53 871.50,420.47 890.50,427.14 " fill="none" stroke="#e05a5a" stroke-width="2"/>
<circle cx="522.38" cy="-233.81" r="3" fill="#4a90d9" opacity="0.8"/>
<circle cx="527.12" cy="-37.66" r="3" fill="#4a90d9" opacity="0.8"/>
<circle cx="534.25" cy="119.03" r="3" fill="#4a90d9" opacity="0.8"/>
<circle cx="543.75" cy="197.03" r="3" fill="#4a90d9" opacity="0.8"/>
<circle cx="553.25" cy="234.56" r="3" fill="#4a90d9" opacity="0.8"/>
<circle cx="567.50" cy="267.94" r="3" fill="#4a90d9" opacity="0.8"/>
<circle cx="586.50" cy="295.32" r="3" fill="#4a90d9" opacity="0.8"/>
<circle cx="615.00" cy="315.06" r="3" fill="#4a90d9" opacity="0.8"/>
<circle cx="653.00" cy="333.82" r="3" fill="#4a90d9" opacity="0.8"/>
<circle cx="691.00" cy="347.57" r="3" fill="#4a90d9" opacity="0.8"/>
<circle cx="729.00" cy="359.64" r="3" fill="#4a90d9" opacity="0.8"/>
<circle cx="767.00" cy="371.67" r="3" fill="#4a90d9" opacity="0.8"/>
<circle cx="805.00" cy="384.57" r="3" fill="#4a90d9" opacity="0.8"/>
<circle cx="843.00" cy="399.42" r="3" fill="#4a90d9" opacity="0.8"/>
<circle cx="871.50" cy="413.29" r="3" fill="#4a90d9" opacity="0.8"/>
<circle cx="890.50" cy="427.14" r="3" fill="#4a90d9" opacity="0.8"/>
<circle cx="522.38" cy="324.20" r="3" fill="#e05a5a" opacity="0.8"/>
<circle cx="527.12" cy="497.12" r="3" fill="#e05a5a" opacity="0.8"/>
<circle cx="534.25" cy="497.26" r="3" fill="#e05a5a" opacity="0.8"/>
<circle cx="543.75" cy="485.24" r="3" fill="#e05a5a" opacity="0.8"/>
<circle cx="553.25" cy="476.32" r="3" fill="#e05a5a" opacity="0.8"/>
<circle cx="567.50" cy="466.71" r="3" fill="#e05a5a" opacity="0.8"/>
<circle cx="586.50" cy="455.96" r="3" fill="#e05a5a" opacity="0.8"/>
<circle cx="615.00" cy="448.17" r="3" fill="#e05a5a" opacity="0.8"/>
<circle cx="653.00" cy="437.60" r="3" fill="#e05a5a" opacity="0.8"/>
<circle cx="691.00" cy="429.91" r="3" fill="#e05a5a" opacity="0.8"/>
<circle cx="729.00" cy="424.35" r="3" fill="#e05a5a" opacity="0.8"/>
<circle cx="767.00" cy="420.56" r="3" fill="#e05a5a" opacity="0.8"/>
<circle cx="805.00" cy="418.56" r="3" fill="#e05a5a" opacity="0.8"/>
<circle cx="843.00" cy="418.53" r="3" fill="#e05a5a" opacity="0.8"/>
<circle cx="871.50" cy="420.47" r="3" fill="#e05a5a" opacity="0.8"/>
<circle cx="890.50" cy="427.14" r="3" fill="#e05a5a" opacity="0.8"/>
<text class="label" x="990" y="542" text-anchor="end">Panelz2 — Hess &amp; Smith panel method</text>
</svg>
