<?xml version="1.0" encoding="UTF-8"?>
<svg xmlns="http://www.w3.org/2000/svg"
     width="900" height="700"
     viewBox="0 0 900 700">
<defs>
  <style>
    text { font-family: monospace; font-size: 12px; fill: #ddd; }
    .title { font-size: 16px; fill: #fff; font-weight: bold; }
    .label { font-size: 11px; fill: #aaa; }
    .axis  { stroke: #555; stroke-width: 1; fill: none; }
    .grid  { stroke: #333; stroke-width: 0.5; fill: none; stroke-dasharray: 4,4; }
  </style>
</defs>
<rect width="900" height="700" fill="#1a1a2e"/>
<text class="title" x="450" y="30" text-anchor="middle">NACA-0015   α = 10.0°   Cl = 1.1504</text>
<polyline points="680.00,199.05 650.00,193.95 620.00,189.14 560.00,180.33 500.00,172.52 440.00,165.78 380.00,160.30 320.00,156.48 260.00,154.99 230.00,155.44 200.00,156.97 170.00,159.91 140.00,164.88 125.00,168.50 110.00,173.34 95.00,180.39 87.50,185.80 80.00,200.00 87.50,214.20 95.00,219.61 110.00,226.66 125.00,231.50 140.00,235.12 170.00,240.09 200.00,243.03 230.00,244.56 260.00,245.01 320.00,243.52 380.00,239.70 440.00,234.22 500.00,227.48 560.00,219.67 620.00,210.86 650.00,206.05 680.00,200.95 680.00,199.05" fill="#16213e" stroke="#4a90d9" stroke-width="2"/>
<line x1="665.00" y1="196.50" x2="662.69" y2="210.11" stroke="#e07b39" stroke-width="1.5" opacity="0.7"/>
<line x1="635.00" y1="191.55" x2="634.18" y2="196.63" stroke="#e07b39" stroke-width="1.5" opacity="0.7"/>
<line x1="590.00" y1="184.73" x2="590.54" y2="181.07" stroke="#4a90d9" stroke-width="1.5" opacity="0.7"/>
<line x1="530.00" y1="176.42" x2="531.74" y2="163.06" stroke="#4a90d9" stroke-width="1.5" opacity="0.7"/>
<line x1="470.00" y1="169.15" x2="472.53" y2="146.67" stroke="#4a90d9" stroke-width="1.5" opacity="0.7"/>
<line x1="410.00" y1="163.04" x2="412.95" y2="130.78" stroke="#4a90d9" stroke-width="1.5" opacity="0.7"/>
<line x1="350.00" y1="158.39" x2="352.78" y2="114.72" stroke="#4a90d9" stroke-width="1.5" opacity="0.7"/>
<line x1="290.00" y1="155.73" x2="291.44" y2="97.74" stroke="#4a90d9" stroke-width="1.5" opacity="0.7"/>
<line x1="245.00" y1="155.21" x2="243.90" y2="82.10" stroke="#4a90d9" stroke-width="1.5" opacity="0.7"/>
<line x1="215.00" y1="156.20" x2="210.73" y2="72.46" stroke="#4a90d9" stroke-width="1.5" opacity="0.7"/>
<line x1="185.00" y1="158.44" x2="175.44" y2="60.87" stroke="#4a90d9" stroke-width="1.5" opacity="0.7"/>
<line x1="155.00" y1="162.39" x2="135.72" y2="46.09" stroke="#4a90d9" stroke-width="1.5" opacity="0.7"/>
<line x1="132.50" y1="166.69" x2="98.95" y2="27.57" stroke="#4a90d9" stroke-width="1.5" opacity="0.7"/>
<line x1="117.50" y1="170.92" x2="67.03" y2="14.58" stroke="#4a90d9" stroke-width="1.5" opacity="0.7"/>
<line x1="102.50" y1="176.87" x2="18.02" y2="-2.88" stroke="#4a90d9" stroke-width="1.5" opacity="0.7"/>
<line x1="91.25" y1="183.09" x2="-62.03" y2="-29.55" stroke="#4a90d9" stroke-width="1.5" opacity="0.7"/>
<line x1="83.75" y1="192.90" x2="-120.17" y2="85.21" stroke="#4a90d9" stroke-width="1.5" opacity="0.7"/>
<line x1="83.75" y1="207.10" x2="80.86" y2="208.63" stroke="#4a90d9" stroke-width="1.5" opacity="0.7"/>
<line x1="91.25" y1="216.91" x2="125.61" y2="169.24" stroke="#e07b39" stroke-width="1.5" opacity="0.7"/>
<line x1="102.50" y1="223.13" x2="126.89" y2="171.24" stroke="#e07b39" stroke-width="1.5" opacity="0.7"/>
<line x1="117.50" y1="229.08" x2="132.06" y2="183.99" stroke="#e07b39" stroke-width="1.5" opacity="0.7"/>
<line x1="132.50" y1="233.31" x2="141.75" y2="194.95" stroke="#e07b39" stroke-width="1.5" opacity="0.7"/>
<line x1="155.00" y1="237.61" x2="160.08" y2="206.97" stroke="#e07b39" stroke-width="1.5" opacity="0.7"/>
<line x1="185.00" y1="241.56" x2="187.17" y2="219.40" stroke="#e07b39" stroke-width="1.5" opacity="0.7"/>
<line x1="215.00" y1="243.80" x2="215.86" y2="226.99" stroke="#e07b39" stroke-width="1.5" opacity="0.7"/>
<line x1="245.00" y1="244.79" x2="245.20" y2="231.51" stroke="#e07b39" stroke-width="1.5" opacity="0.7"/>
<line x1="290.00" y1="244.27" x2="289.75" y2="234.30" stroke="#e07b39" stroke-width="1.5" opacity="0.7"/>
<line x1="350.00" y1="241.61" x2="349.56" y2="234.78" stroke="#e07b39" stroke-width="1.5" opacity="0.7"/>
<line x1="410.00" y1="236.96" x2="409.50" y2="231.44" stroke="#e07b39" stroke-width="1.5" opacity="0.7"/>
<line x1="470.00" y1="230.85" x2="469.43" y2="225.77" stroke="#e07b39" stroke-width="1.5" opacity="0.7"/>
<line x1="530.00" y1="223.58" x2="529.32" y2="218.31" stroke="#e07b39" stroke-width="1.5" opacity="0.7"/>
<line x1="590.00" y1="215.27" x2="589.09" y2="209.06" stroke="#e07b39" stroke-width="1.5" opacity="0.7"/>
<line x1="635.00" y1="208.45" x2="633.65" y2="200.02" stroke="#e07b39" stroke-width="1.5" opacity="0.7"/>
<line x1="665.00" y1="203.50" x2="662.69" y2="189.89" stroke="#e07b39" stroke-width="1.5" opacity="0.7"/>
<text class="label" x="80.00" y="280.00">← chord →     (arrows: blue = suction, orange = pressure)</text>
<line x1="80.00" y1="200.00" x2="680.00" y2="200.00" class="axis"/>
<line x1="80.00" y1="460.00" x2="680.00" y2="460.00" class="axis"/>
<line x1="80.00" y1="580.00" x2="80.00" y2="220.00" class="axis"/>
<line x1="80.00" y1="220.00" x2="680.00" y2="220.00" class="grid"/>
<text class="label" x="74.00" y="224.00" text-anchor="end">-2</text>
<line x1="80.00" y1="340.00" x2="680.00" y2="340.00" class="grid"/>
<text class="label" x="74.00" y="344.00" text-anchor="end">-1</text>
<line x1="80.00" y1="460.00" x2="680.00" y2="460.00" class="grid"/>
<text class="label" x="74.00" y="464.00" text-anchor="end">0</text>
<line x1="80.00" y1="580.00" x2="680.00" y2="580.00" class="grid"/>
<text class="label" x="74.00" y="584.00" text-anchor="end">1</text>
<text class="label" x="80.00" y="475.00" text-anchor="middle">0</text>
<text class="label" x="230.00" y="475.00" text-anchor="middle">0.25</text>
<text class="label" x="380.00" y="475.00" text-anchor="middle">0.5</text>
<text class="label" x="530.00" y="475.00" text-anchor="middle">0.75</text>
<text class="label" x="680.00" y="475.00" text-anchor="middle">1</text>
<text class="label" x="380.00" y="212.00" text-anchor="middle">Cp distribution (blue = upper surface, red = lower)</text>
<text class="label" x="685.00" y="464.00">x/c</text>
<polyline points="83.75,-1.23 91.25,-64.27 102.50,62.79 117.50,131.42 132.50,173.79 155.00,224.22 185.00,263.93 215.00,292.29 245.00,313.75 290.00,343.98 350.00,372.49 410.00,395.21 470.00,414.76 530.00,433.05 590.00,452.60 635.00,470.29 665.00,487.62 " fill="none" stroke="#4a90d9" stroke-width="2"/>
<polyline points="83.75,453.46 91.25,577.51 102.50,574.68 117.50,554.77 132.50,538.91 155.00,522.10 185.00,504.53 215.00,493.65 245.00,486.56 290.00,479.94 350.00,473.70 410.00,471.08 470.00,470.22 530.00,470.62 590.00,472.56 635.00,477.08 665.00,487.62 " fill="none" stroke="#e05a5a" stroke-width="2"/>
<circle cx="83.75" cy="-1.23" r="3" fill="#4a90d9" opacity="0.8"/>
<circle cx="91.25" cy="-64.27" r="3" fill="#4a90d9" opacity="0.8"/>
<circle cx="102.50" cy="62.79" r="3" fill="#4a90d9" opacity="0.8"/>
<circle cx="117.50" cy="131.42" r="3" fill="#4a90d9" opacity="0.8"/>
<circle cx="132.50" cy="173.79" r="3" fill="#4a90d9" opacity="0.8"/>
<circle cx="155.00" cy="224.22" r="3" fill="#4a90d9" opacity="0.8"/>
<circle cx="185.00" cy="263.93" r="3" fill="#4a90d9" opacity="0.8"/>
<circle cx="215.00" cy="292.29" r="3" fill="#4a90d9" opacity="0.8"/>
<circle cx="245.00" cy="313.75" r="3" fill="#4a90d9" opacity="0.8"/>
<circle cx="290.00" cy="343.98" r="3" fill="#4a90d9" opacity="0.8"/>
<circle cx="350.00" cy="372.49" r="3" fill="#4a90d9" opacity="0.8"/>
<circle cx="410.00" cy="395.21" r="3" fill="#4a90d9" opacity="0.8"/>
<circle cx="470.00" cy="414.76" r="3" fill="#4a90d9" opacity="0.8"/>
<circle cx="530.00" cy="433.05" r="3" fill="#4a90d9" opacity="0.8"/>
<circle cx="590.00" cy="452.60" r="3" fill="#4a90d9" opacity="0.8"/>
<circle cx="635.00" cy="470.29" r="3" fill="#4a90d9" opacity="0.8"/>
<circle cx="665.00" cy="487.62" r="3" fill="#4a90d9" opacity="0.8"/>
<circle cx="83.75" cy="453.46" r="3" fill="#e05a5a" opacity="0.8"/>
<circle cx="91.25" cy="577.51" r="3" fill="#e05a5a" opacity="0.8"/>
<circle cx="102.50" cy="574.68" r="3" fill="#e05a5a" opacity="0.8"/>
<circle cx="117.50" cy="554.77" r="3" fill="#e05a5a" opacity="0.8"/>
<circle cx="132.50" cy="538.91" r="3" fill="#e05a5a" opacity="0.8"/>
<circle cx="155.00" cy="522.10" r="3" fill="#e05a5a" opacity="0.8"/>
<circle cx="185.00" cy="504.53" r="3" fill="#e05a5a" opacity="0.8"/>
<circle cx="215.00" cy="493.65" r="3" fill="#e05a5a" opacity="0.8"/>
<circle cx="245.00" cy="486.56" r="3" fill="#e05a5a" opacity="0.8"/>
<circle cx="290.00" cy="479.94" r="3" fill="#e05a5a" opacity="0.8"/>
<circle cx="350.00" cy="473.70" r="3" fill="#e05a5a" opacity="0.8"/>
<circle cx="410.00" cy="471.08" r="3" fill="#e05a5a" opacity="0.8"/>
<circle cx="470.00" cy="470.22" r="3" fill="#e05a5a" opacity="0.8"/>
<circle cx="530.00" cy="470.62" r="3" fill="#e05a5a" opacity="0.8"/>
<circle cx="590.00" cy="472.56" r="3" fill="#e05a5a" opacity="0.8"/>
<circle cx="635.00" cy="477.08" r="3" fill="#e05a5a" opacity="0.8"/>
<circle cx="665.00" cy="487.62" r="3" fill="#e05a5a" opacity="0.8"/>
<text class="label" x="890" y="692" text-anchor="end">Panelz2 — Hess &amp; Smith panel method</text>
</svg>
